<svg height="512" viewBox="0 0 58 58" width="512" xmlns="http://www.w3.org/2000/svg"><g id="Page-1" fill="none" fill-rule="evenodd"><g id="045---disk-error" fill-rule="nonzero"><path id="Shape" d="m34 12h-30c-2.209139 0-4 1.790861-4 4v38c0 2.209139 1.790861 4 4 4h38c2.209139 0 4-1.790861 4-4v-30zm-29 41c0 .5522847-.44771525 1-1 1s-1-.4477153-1-1v-1c0-.5522847.44771525-1 1-1s1 .4477153 1 1zm38 0c0 .5522847-.4477153 1-1 1s-1-.4477153-1-1v-1c0-.5522847.4477153-1 1-1s1 .4477153 1 1z" fill="#2980ba"/><path id="Shape" d="m10 50h26c1.1045695 0 2 .8954305 2 2v6h-30v-6c0-1.1045695.8954305-2 2-2z" fill="#285680"/><circle id="Oval" cx="23" cy="38" fill="#bdc3c7" r="6"/><circle id="Oval" cx="23" cy="38" fill="#393f4a" r="1"/><path id="Shape" d="m29 12v14c-.0032948 1.1032019-.8967981 1.9967052-2 2h-16c-1.10320187-.0032948-1.9967052-.8967981-2-2v-14z" fill="#ecf0f1"/><path id="Shape" d="m37 24v2c-.0032948 1.1032019-.8967981 1.9967052-2 2h-8c1.1032019-.0032948 1.9967052-.8967981 2-2v-14h5z" fill="#393f4a"/><path id="Shape" d="m14 25c-.5522847 0-1-.4477153-1-1v-8c0-.5522847.4477153-1 1-1s1 .4477153 1 1v8c0 .5522847-.4477153 1-1 1z" fill="#393f4a"/><circle id="Oval" cx="41" cy="17" fill="#e64c3c" r="17"/><g fill="#fff"><path id="Shape" d="m41 26c-4.9705627 0-9-4.0294373-9-9s4.0294373-9 9-9 9 4.0294373 9 9c-.0055111 4.9682782-4.0317218 8.9944889-9 9zm0-16c-3.8659932 0-7 3.1340068-7 7s3.1340068 7 7 7 7-3.1340068 7-7c-.0044086-3.8641657-3.1358343-6.9955914-7-7z"/><path id="Shape" d="m35.34 23.66c-.4043959-.0000863-.7689341-.2437275-.923678-.6173454-.1547439-.373618-.0692299-.8036603.216678-1.0896546l11.32-11.32c.3923789-.3789722 1.0160848-.3735524 1.4018186.0121814s.3911536 1.0094397.0121814 1.4018186l-11.32 11.32c-.1874927.1875494-.4418052.2929434-.707.293z"/></g></g></g></svg>